HIERARCHY
ROOT Hips
{
	OFFSET 0.000000 8.830580 0.000000
	CHANNELS 6 Xposition Yposition Zposition Zrotation Yrotation Xrotation 
	JOINT Spine
	{
		OFFSET 0.000000 0.010000 0.000000
		CHANNELS 3 Zrotation Yrotation Xrotation
		JOINT Spine1
		{
			OFFSET 0.000000 2.459130 0.000000
			CHANNELS 3 Zrotation Yrotation Xrotation
			JOINT Neck
			{
				OFFSET 0.000000 2.484630 0.000000
				CHANNELS 3 Zrotation Yrotation Xrotation
				JOINT Head_virtual
				{
					OFFSET 0.000000 0.000000 0.000000
					CHANNELS 3 Zrotation Yrotation Xrotation
					JOINT Head
					{
						OFFSET 0.000000 0.927525 0.000000
						CHANNELS 3 Zrotation Yrotation Xrotation
						End Site
						{
							OFFSET 0.000000 0.000000 0.000000
						}
					}
				}
				JOINT LeftUpArm_virtual
				{
					OFFSET 0.000000 0.000000 0.000000
					CHANNELS 3 Zrotation Yrotation Xrotation
					JOINT LeftUpArm
					{
						OFFSET 1.248820 0.000000 0.000000
						CHANNELS 3 Zrotation Yrotation Xrotation
						JOINT LeftForeArm
						{
							OFFSET 2.597580 0.000000 0.000000
							CHANNELS 3 Zrotation Yrotation Xrotation
							JOINT LeftHand
							{
								OFFSET 2.455420 0.000000 0.000000
								CHANNELS 3 Zrotation Yrotation Xrotation
								End Site
								{
									OFFSET 0.000000 0.000000 0.000000
								}
							}
						}
					}
				}
				JOINT RightUpArm_virtual
				{
					OFFSET -0.000000 -0.000000 -0.000000
					CHANNELS 3 Zrotation Yrotation Xrotation
					JOINT RightUpArm
					{
						OFFSET -1.248820 -0.000000 -0.000000
						CHANNELS 3 Zrotation Yrotation Xrotation
						JOINT RightForeArm
						{
							OFFSET -2.597580 -0.000000 -0.000000
							CHANNELS 3 Zrotation Yrotation Xrotation
							JOINT RightHand
							{
								OFFSET -2.455420 -0.000000 -0.000000
								CHANNELS 3 Zrotation Yrotation Xrotation
								End Site
								{
									OFFSET 0.000000 0.000000 0.000000
								}
							}
						}
					}
				}
			}
		}
	}
	JOINT LeftUpLeg
	{
		OFFSET 1.271939 0.000000 0.000000
		CHANNELS 3 Zrotation Yrotation Xrotation
		JOINT LeftLowLeg
		{
			OFFSET 0.000000 -4.342910 0.000000
			CHANNELS 3 Zrotation Yrotation Xrotation
			JOINT LeftFoot
			{
				OFFSET 0.000000 -4.487670 0.000000
				CHANNELS 3 Zrotation Yrotation Xrotation
				JOINT LeftToeBase
				{
					OFFSET 0.000000 0.000000 1.515070
					CHANNELS 3 Zrotation Yrotation Xrotation
					End Site
					{
						OFFSET 0.000000 0.000000 0.000000
					}
				}
			}
		}
	}
	JOINT RightUpLeg
	{
		OFFSET -1.271939 0.000000 0.000000
		CHANNELS 3 Zrotation Yrotation Xrotation
		JOINT RightLowLeg
		{
			OFFSET 0.000000 -4.342910 0.000000
			CHANNELS 3 Zrotation Yrotation Xrotation
			JOINT RightFoot
			{
				OFFSET 0.000000 -4.487670 0.000000
				CHANNELS 3 Zrotation Yrotation Xrotation
				JOINT RightToeBase
				{
					OFFSET 0.000000 0.000000 1.515070
					CHANNELS 3 Zrotation Yrotation Xrotation
					End Site
					{
						OFFSET 0.000000 0.000000 0.000000
					}
				}
			}
		}
	}
}
MOTION
Frames: 8
Frame Time: 0.041667
-26.947454 8.807882 55.936742 -8.711644 41.450012 4.070215 8.046889 5.914131 -16.850141 -1.891868 2.419925 9.998588 0.000000 0.000000 0.000000 -14.816510 2.812017 6.567800 -23.233507 4.507762 -63.433581 -23.394199 4.272940 1.742490 -48.279202 13.558200 24.243011 0.000000 -51.328701 0.000000 12.459600 0.649713 -12.573500 28.139099 -1.904230 1.390430 42.230301 11.117400 -2.405330 0.000000 2.293470 0.000000 -6.113670 -2.397490 27.716801 -5.065277 4.497021 -29.444522 0.000000 0.000000 4.548010 -5.337915 17.482629 -5.341293 0.000000 0.000000 -11.891310 12.512662 19.011606 -0.379842 0.000000 0.000000 17.087900 7.371287 -25.861473 -11.108344 0.000000 0.000000 -19.054550 
-26.842371 8.775709 56.054179 -8.464330 41.595464 4.272342 7.743842 6.177585 -16.831120 -2.225589 2.842788 9.831719 0.000000 0.000000 0.000000 -15.003652 3.000648 6.081252 -23.190876 4.242084 -63.757122 -23.306700 4.225590 1.705470 -47.904701 13.567000 24.476990 0.000000 -51.824200 0.000000 12.423500 0.555883 -12.268800 28.180500 -1.822450 1.562860 42.769600 10.723600 -2.708750 0.000000 1.783870 0.000000 -5.786990 -2.551040 27.894300 -5.681461 5.634225 -30.397246 0.000000 0.000000 7.451120 -3.307446 20.102739 -5.249743 0.000000 0.000000 -12.024900 12.638300 18.601543 0.742318 0.000000 0.000000 16.928900 7.498380 -25.685231 -11.734248 0.000000 0.000000 -19.216430 
-26.728451 8.739871 56.173682 -8.277613 41.707681 4.507446 7.451109 6.452626 -17.011213 -2.515026 3.307896 9.694568 0.000000 0.000000 0.000000 -15.032236 3.119922 5.659605 -23.246336 4.132567 -63.983566 -23.127001 4.331230 1.604660 -47.681900 13.534700 24.845001 0.000000 -52.403599 0.000000 12.952300 0.657031 -11.610800 28.183901 -1.763970 1.740580 43.261902 10.278500 -2.664290 0.000000 1.342810 0.000000 -5.529900 -2.762690 27.864300 -6.484754 7.115244 -31.290091 0.000000 0.000000 10.516700 -2.157720 22.332308 -4.997050 0.000000 0.000000 -12.558410 12.709625 17.980366 1.726576 0.000000 0.000000 16.955900 7.561893 -25.353123 -12.290052 0.000000 0.000000 -19.501110 
-26.604210 8.704383 56.296560 -7.832790 41.784214 4.998189 7.005459 6.603798 -17.409664 -2.841885 3.781068 9.541242 0.000000 0.000000 0.000000 -15.087082 3.323134 5.399142 -23.292267 4.153943 -64.209760 -23.078600 4.403670 1.445460 -47.379101 13.864200 24.881012 0.000000 -53.287300 0.000000 13.334600 1.055090 -10.729900 28.287701 -1.648810 1.921960 43.631302 9.809470 -2.495610 0.000000 0.794329 0.000000 -5.510700 -2.691460 28.043301 -7.810907 9.126605 -31.947930 0.000000 0.000000 12.967600 -3.580117 23.423314 -4.766383 0.000000 0.000000 -12.825230 12.456980 17.084808 2.489420 0.000000 0.000000 17.361300 8.051322 -24.349055 -13.013350 0.000000 0.000000 -19.824670 
-26.473303 8.676436 56.410451 -7.034754 42.240680 5.635629 6.512009 6.583091 -17.659427 -3.460056 4.032051 9.221914 0.000000 0.000000 0.000000 -15.197805 3.585287 5.334972 -23.238632 4.210289 -64.481110 -23.221001 4.433360 1.332910 -46.902000 14.225300 24.690002 0.000000 -54.099800 0.000000 14.120000 1.202920 -9.643290 28.666500 -1.621590 1.995390 43.716400 9.299630 -2.638460 0.000000 0.399758 0.000000 -5.561210 -2.702730 28.209900 -9.297814 10.343389 -32.331943 0.000000 0.000000 14.636200 -0.838839 25.700127 -2.030985 0.000000 0.000000 -13.474480 11.800260 15.462903 2.992284 0.000000 0.000000 18.350599 8.942955 -22.524270 -13.703165 0.000000 0.000000 -20.284820 
-26.334453 8.659470 56.524059 -6.136601 43.001408 6.509616 6.134288 6.574631 -18.179493 -4.453658 4.179821 8.917651 0.000000 0.000000 0.000000 -15.282212 3.884805 5.387956 -23.287747 4.441725 -64.666486 -23.230400 4.262450 1.355100 -46.514500 14.673000 23.888000 0.000000 -54.672001 0.000000 14.411400 0.925965 -7.629980 29.181801 -1.800380 1.977120 43.861198 8.697010 -2.558300 0.000000 0.302054 0.000000 -5.888690 -2.784760 27.874001 -9.971074 9.713420 -32.722027 0.000000 0.000000 16.641001 2.917241 25.573521 1.931374 0.000000 0.000000 -13.816600 10.948214 13.494165 2.999014 0.000000 0.000000 19.915600 9.764676 -20.547372 -13.806999 0.000000 0.000000 -21.477000 
-26.193659 8.652553 56.636599 -5.396202 44.062589 7.225407 5.703801 6.392358 -18.793982 -5.083083 4.288125 8.800771 0.000000 0.000000 0.000000 -15.179094 3.921330 5.452914 -23.508900 4.642695 -64.666246 -23.191299 4.121450 1.668320 -46.211102 14.677800 23.296997 0.000000 -55.108601 0.000000 13.984700 0.691722 -7.870160 29.409500 -2.082420 1.855300 44.233101 7.519810 0.248364 0.000000 1.521790 0.000000 -6.520750 -3.768490 24.915501 -10.668120 9.132619 -33.310387 0.000000 0.000000 19.148701 10.071962 24.847236 6.001053 0.000000 0.000000 -13.914810 10.368989 11.991237 2.784925 0.000000 0.000000 21.987801 10.711563 -19.200136 -13.292077 0.000000 0.000000 -23.542240 
-26.047596 8.651469 56.750846 -5.112532 45.240348 7.197868 5.388358 6.224946 -19.134871 -5.214537 4.390080 8.804587 0.000000 0.000000 0.000000 -15.133712 3.891361 5.543480 -23.671076 4.869408 -64.382342 -22.867100 3.864790 1.937400 -46.316601 14.845200 23.225006 0.000000 -55.595299 0.000000 14.221800 1.266410 -7.686440 29.154900 -2.523210 1.682170 44.847698 6.798300 -0.016480 0.000000 1.678700 0.000000 -6.673200 -3.614640 24.698999 -10.228817 7.140414 -33.149646 0.000000 0.000000 21.643801 8.433208 26.241640 4.602406 0.000000 0.000000 -12.970890 10.262026 10.661824 2.770200 0.000000 0.000000 24.512199 12.045982 -17.824768 -12.149675 0.000000 0.000000 -26.285800 
